<svg height="2500" width="2500" xmlns="http://www.w3.org/2000/svg" viewBox="-87 -124 600 674"><g fill="none" fill-rule="evenodd"><path d="M388.608 368.665H72.7c-19.42 0-35.308-15.889-35.308-35.308V89.339s-.106 35.418 37.625 35.418h262.009s51.582-4.44 51.582 34.032z" fill="#4285f4" fill-rule="nonzero" data-index="1" style="visibility: hidden;"></path><g fill-rule="nonzero"><path d="M241.204 243.656c7.55-5.829 12.44-14.94 12.44-25.193 0-17.164-13.66-31.163-30.676-31.787.366-.013.722-.059 1.09-.059 1.906 0 3.763.199 5.579.521v-20.2a6.121 6.121 0 0 0-6.12-6.12 6.121 6.121 0 0 0-6.12 6.12v20.02c-15.479 2.154-27.445 15.442-27.445 31.505 0 10.706 5.326 20.173 13.45 25.95l-58.215 124.252h38.044l26.878-57.54c4.975-10.567 19.99-10.611 25.027-.075l27.716 57.615h38.355l-60.003-125.01zm-19.407-5.584c-10.83 0-19.608-8.779-19.608-19.609s8.779-19.609 19.608-19.609c10.83 0 19.61 8.78 19.61 19.61s-8.78 19.608-19.61 19.608z" fill="#3870b2" data-index="3" style="visibility: hidden;"></path><path d="M148.247 71.482h135.165v24.749H148.247z" fill="#fff" data-index="5" style="visibility: hidden;"></path><path d="M356.837 192.534h-14.592c-.967 0-1.758.791-1.758 1.758l-.354 228.99c0 .968.79 1.759 1.758 1.759l14.946.084c17.474 0 31.771-14.297 31.771-31.77V160.728c0 17.474-14.297 31.805-31.77 31.805z" fill="#073042" data-index="7" style="visibility: hidden;"></path></g></g></svg>